<svg width="26" height="24" viewBox="0 0 26 24" fill="none" xmlns="http://www.w3.org/2000/svg">
<path d="M24.1924 0.962646H1.96141C1.52484 0.963252 1.10632 1.14703 0.797617 1.47369C0.488918 1.80035 0.315239 2.24322 0.314667 2.70518V17.5168C0.315239 17.9787 0.488918 18.4216 0.797617 18.7483C1.10632 19.0749 1.52484 19.2587 1.96141 19.2593H10.4473L9.89818 21.0018H8.54837C8.43918 21.0018 8.33447 21.0477 8.25726 21.1294C8.18006 21.2111 8.13668 21.3219 8.13668 21.4375V22.3087H4.43152C4.32233 22.3087 4.21762 22.3546 4.14041 22.4363C4.06321 22.518 4.01983 22.6288 4.01983 22.7444C4.01983 22.8599 4.06321 22.9707 4.14041 23.0524C4.21762 23.1341 4.32233 23.18 4.43152 23.18H22.5457C22.6548 23.18 22.7596 23.1341 22.8368 23.0524C22.914 22.9707 22.9573 22.8599 22.9573 22.7444C22.9573 22.6288 22.914 22.518 22.8368 22.4363C22.7596 22.3546 22.6548 22.3087 22.5457 22.3087H18.0171V21.4375C18.0171 21.3219 17.9738 21.2111 17.8965 21.1294C17.8193 21.0477 17.7146 21.0018 17.6054 21.0018H16.2556L15.7065 19.2593H24.1924C24.629 19.2587 25.0475 19.0749 25.3562 18.7483C25.6649 18.4216 25.8386 17.9787 25.8391 17.5168V2.70518C25.8386 2.24322 25.6649 1.80035 25.3562 1.47369C25.0475 1.14703 24.629 0.963252 24.1924 0.962646ZM17.1938 21.8731V22.3087H8.96005V21.8731H17.1938ZM10.7663 21.0018L11.3154 19.2593H14.8384L15.3875 21.0018H10.7663ZM25.0158 17.5168C25.0155 17.7477 24.9286 17.9692 24.7743 18.1325C24.6199 18.2958 24.4107 18.3877 24.1924 18.388H1.96141C1.74312 18.3877 1.53386 18.2958 1.37951 18.1325C1.22516 17.9692 1.13832 17.7477 1.13804 17.5168V16.6455H25.0158V17.5168ZM7.29582 11.8535L7.14143 15.7742H6.66182L6.50744 11.8535H7.29582ZM6.56405 10.9822L6.83885 9.2397H6.96441L7.23921 10.9822H6.56405ZM6.90163 8.36843C6.45546 8.36843 6.07826 7.76998 6.07826 7.06153C6.07826 6.61446 6.5095 5.96482 6.9006 5.50686C7.2531 5.92071 7.725 6.58233 7.725 7.06153C7.725 7.76998 7.34779 8.36843 6.90163 8.36843ZM11.3818 7.49717L11.4302 7.60008V7.9328H9.78342V7.60008L9.8318 7.49717H11.3818ZM10.2435 6.6259L10.6068 5.85755L10.9701 6.6259H10.2435ZM11.4302 8.80407V15.7198C11.4303 15.738 11.4315 15.7562 11.4338 15.7742H9.77982C9.78206 15.7562 9.78327 15.738 9.78342 15.7198V8.80407H11.4302ZM15.1353 7.06153H16.3704V7.9328H15.9587C15.8495 7.9328 15.7448 7.9787 15.6676 8.06039C15.5904 8.14209 15.547 8.2529 15.547 8.36843C15.547 8.48397 15.5904 8.59478 15.6676 8.67648C15.7448 8.75817 15.8495 8.80407 15.9587 8.80407H16.3704V9.67534H15.1353C15.0261 9.67534 14.9214 9.72124 14.8442 9.80293C14.767 9.88463 14.7236 9.99544 14.7236 10.111C14.7236 10.2265 14.767 10.3373 14.8442 10.419C14.9214 10.5007 15.0261 10.5466 15.1353 10.5466H16.3704V11.4179H15.9587C15.8495 11.4179 15.7448 11.4638 15.6676 11.5455C15.5904 11.6272 15.547 11.738 15.547 11.8535C15.547 11.969 15.5904 12.0799 15.6676 12.1616C15.7448 12.2432 15.8495 12.2891 15.9587 12.2891H16.3704V13.1604H15.1353C15.0261 13.1604 14.9214 13.2063 14.8442 13.288C14.767 13.3697 14.7236 13.4805 14.7236 13.5961C14.7236 13.7116 14.767 13.8224 14.8442 13.9041C14.9214 13.9858 15.0261 14.0317 15.1353 14.0317H16.3704V15.7742H13.4886V5.31899H16.3704V6.19026H15.1353C15.0261 6.19026 14.9214 6.23616 14.8442 6.31786C14.767 6.39955 14.7236 6.51036 14.7236 6.6259C14.7236 6.74143 14.767 6.85224 14.8442 6.93394C14.9214 7.01563 15.0261 7.06153 15.1353 7.06153ZM20.0756 12.2891V15.7198C20.0757 15.738 20.0769 15.7562 20.0792 15.7742H18.4252C18.4274 15.7562 18.4287 15.738 18.4288 15.7198V12.2891H20.0756ZM18.4288 11.4179V11.0852L19.2522 9.34262L20.0756 11.0852V11.4179H18.4288ZM25.0158 15.7742H20.8953C20.8976 15.7562 20.8988 15.738 20.8989 15.7198V10.9822C20.8989 10.9146 20.8841 10.8479 20.8557 10.7873L19.6206 8.17349C19.5864 8.10114 19.5338 8.04032 19.4687 7.99781C19.4036 7.9553 19.3287 7.93278 19.2522 7.93278C19.1757 7.93278 19.1007 7.9553 19.0357 7.99781C18.9706 8.04032 18.918 8.10114 18.8837 8.17349L17.6487 10.7873C17.6203 10.8479 17.6055 10.9146 17.6054 10.9822V15.7198C17.6056 15.738 17.6068 15.7562 17.609 15.7742H17.1938V4.88336C17.1938 4.76782 17.1504 4.65702 17.0732 4.57532C16.996 4.49362 16.8913 4.44772 16.7821 4.44772H13.0769C12.9677 4.44772 12.863 4.49362 12.7858 4.57532C12.7086 4.65702 12.6652 4.76782 12.6652 4.88336V15.7742H12.2499C12.2522 15.7562 12.2534 15.738 12.2535 15.7198V7.49717C12.2535 7.42953 12.2387 7.36282 12.2103 7.30222L10.9753 4.68841C10.941 4.61607 10.8884 4.55524 10.8233 4.51273C10.7582 4.47022 10.6833 4.4477 10.6068 4.4477C10.5303 4.4477 10.4554 4.47022 10.3903 4.51273C10.3252 4.55524 10.2726 4.61607 10.2383 4.68841L9.00328 7.30222C8.9749 7.36282 8.96011 7.42953 8.96005 7.49717V15.7198C8.96021 15.738 8.96141 15.7562 8.96366 15.7742H7.96532L8.13617 11.4358C8.13668 11.426 8.13617 11.4162 8.13617 11.4059V11.3928C8.13522 11.3775 8.1335 11.3622 8.13102 11.3471V11.346L7.75021 8.92768C8.22828 8.54596 8.54837 7.85221 8.54837 7.06153C8.54837 5.94195 7.32206 4.70203 7.18209 4.56426C7.10581 4.48944 7.00564 4.44787 6.90163 4.44787C6.79762 4.44787 6.69745 4.48944 6.62117 4.56426C6.48119 4.70203 5.25489 5.94195 5.25489 7.06153C5.25489 7.85221 5.57497 8.54596 6.05304 8.92768L5.67223 11.346V11.3471C5.66976 11.3622 5.66804 11.3775 5.66709 11.3928V11.4059C5.66709 11.4162 5.66657 11.426 5.66709 11.4358L5.83794 15.7742H1.13804V2.70518C1.13832 2.4742 1.22516 2.25277 1.37951 2.08944C1.53386 1.92611 1.74312 1.83422 1.96141 1.83392H24.1924C24.4107 1.83422 24.6199 1.92611 24.7743 2.08944C24.9286 2.25277 25.0155 2.4742 25.0158 2.70518V15.7742Z" fill="black"/>
<path d="M4.84325 17.0811H2.37314C2.26396 17.0811 2.15924 17.127 2.08204 17.2086C2.00483 17.2903 1.96146 17.4012 1.96146 17.5167C1.96146 17.6322 2.00483 17.743 2.08204 17.8247C2.15924 17.9064 2.26396 17.9523 2.37314 17.9523H4.84325C4.95244 17.9523 5.05715 17.9064 5.13436 17.8247C5.21156 17.743 5.25494 17.6322 5.25494 17.5167C5.25494 17.4012 5.21156 17.2903 5.13436 17.2086C5.05715 17.127 4.95244 17.0811 4.84325 17.0811Z" fill="black"/>
<path d="M6.49 17.0811H6.07831C5.96913 17.0811 5.86441 17.127 5.78721 17.2086C5.71 17.2903 5.66663 17.4012 5.66663 17.5167C5.66663 17.6322 5.71 17.743 5.78721 17.8247C5.86441 17.9064 5.96913 17.9523 6.07831 17.9523H6.49C6.59918 17.9523 6.7039 17.9064 6.7811 17.8247C6.85831 17.743 6.90168 17.6322 6.90168 17.5167C6.90168 17.4012 6.85831 17.2903 6.7811 17.2086C6.7039 17.127 6.59918 17.0811 6.49 17.0811Z" fill="black"/>
<path d="M10.6068 9.23962C10.4977 9.23962 10.3929 9.28552 10.3157 9.36722C10.2385 9.44892 10.1952 9.55972 10.1952 9.67526V14.4672C10.1952 14.5828 10.2385 14.6936 10.3157 14.7753C10.3929 14.857 10.4977 14.9029 10.6068 14.9029C10.716 14.9029 10.8207 14.857 10.898 14.7753C10.9752 14.6936 11.0185 14.5828 11.0185 14.4672V9.67526C11.0185 9.55972 10.9752 9.44892 10.898 9.36722C10.8207 9.28552 10.716 9.23962 10.6068 9.23962Z" fill="black"/>
<path d="M19.2522 12.7247C19.143 12.7247 19.0383 12.7706 18.9611 12.8523C18.8839 12.934 18.8405 13.0448 18.8405 13.1604V14.4673C18.8405 14.5828 18.8839 14.6936 18.9611 14.7753C19.0383 14.857 19.143 14.9029 19.2522 14.9029C19.3614 14.9029 19.4661 14.857 19.5433 14.7753C19.6205 14.6936 19.6639 14.5828 19.6639 14.4673V13.1604C19.6639 13.0448 19.6205 12.934 19.5433 12.8523C19.4661 12.7706 19.3614 12.7247 19.2522 12.7247Z" fill="black"/>
<path d="M2.37314 3.57647H5.66662C5.77581 3.57647 5.88052 3.53057 5.95773 3.44887C6.03493 3.36718 6.07831 3.25637 6.07831 3.14083C6.07831 3.0253 6.03493 2.91449 5.95773 2.83279C5.88052 2.7511 5.77581 2.7052 5.66662 2.7052H2.37314C2.26396 2.7052 2.15924 2.7511 2.08204 2.83279C2.00483 2.91449 1.96146 3.0253 1.96146 3.14083C1.96146 3.25637 2.00483 3.36718 2.08204 3.44887C2.15924 3.53057 2.26396 3.57647 2.37314 3.57647Z" fill="black"/>
<path d="M2.37314 4.88335H3.19651C3.3057 4.88335 3.41041 4.83746 3.48762 4.75576C3.56482 4.67406 3.6082 4.56326 3.6082 4.44772C3.6082 4.33218 3.56482 4.22138 3.48762 4.13968C3.41041 4.05798 3.3057 4.01208 3.19651 4.01208H2.37314C2.26396 4.01208 2.15924 4.05798 2.08204 4.13968C2.00483 4.22138 1.96146 4.33218 1.96146 4.44772C1.96146 4.56326 2.00483 4.67406 2.08204 4.75576C2.15924 4.83746 2.26396 4.88335 2.37314 4.88335Z" fill="black"/>
<path d="M22.134 14.903H23.7807C23.8899 14.903 23.9946 14.8571 24.0719 14.7754C24.1491 14.6937 24.1924 14.5829 24.1924 14.4674C24.1924 14.3518 24.1491 14.241 24.0719 14.1593C23.9946 14.0776 23.8899 14.0317 23.7807 14.0317H22.134C22.0248 14.0317 21.9201 14.0776 21.8429 14.1593C21.7657 14.241 21.7223 14.3518 21.7223 14.4674C21.7223 14.5829 21.7657 14.6937 21.8429 14.7754C21.9201 14.8571 22.0248 14.903 22.134 14.903Z" fill="black"/>
<path d="M23.3691 13.596H23.7807C23.8899 13.596 23.9946 13.5501 24.0718 13.4684C24.149 13.3867 24.1924 13.2759 24.1924 13.1604C24.1924 13.0448 24.149 12.934 24.0718 12.8523C23.9946 12.7706 23.8899 12.7247 23.7807 12.7247H23.3691C23.2599 12.7247 23.1552 12.7706 23.0779 12.8523C23.0007 12.934 22.9574 13.0448 22.9574 13.1604C22.9574 13.2759 23.0007 13.3867 23.0779 13.4684C23.1552 13.5501 23.2599 13.596 23.3691 13.596Z" fill="black"/>
</svg>
