<svg width="26" height="27" viewBox="0 0 26 27" fill="none" xmlns="http://www.w3.org/2000/svg">
<path d="M0.356628 0.951416V23.1212H8.54899V24.7063H7.05162V26.289H19.1861V24.7063H17.6887V23.1212H25.8811V0.951416H0.356628ZM16.193 24.7063H10.0447V23.1212H16.1931V24.7063H16.193ZM24.3855 21.5385H1.85225V18.3694H24.3854V21.5385H24.3855ZM24.3855 16.7868H1.85225V2.5341H24.3854V16.7868H24.3855Z" fill="black"/>
<path d="M10.5237 6.79988L9.46615 5.68079L5.70532 9.66039L9.46615 13.6399L10.5237 12.5208L7.82046 9.66039L10.5237 6.79988Z" fill="black"/>
<path d="M16.7717 5.68079L15.7141 6.79988L18.4173 9.66039L15.7141 12.5208L16.7717 13.6399L20.5324 9.66039L16.7717 5.68079Z" fill="black"/>
<path d="M13.2536 4.88834L11.5173 14.1245L12.9843 14.4332L14.7205 5.19712L13.2536 4.88834Z" fill="black"/>
</svg>
